{"title":"The.Legend.Of.Tarzan.HDRip.KOR.Subs.550mb","uid":15478813,"size":563764067,"categoryP":"video","categoryS":"hd___movies","magnet":"?xt=urn:btih:d35ed0fc18da3c1fb189e3cfb09c11031c790e6a&amp;dn=The.Legend.Of.Tarzan.HDRip.KOR.Subs.550mb&amp;tr=udp%3A%2F%2Ftracker.leechers-paradise.org%3A6969&amp;tr=udp%3A%2F%2Fzer0day.ch%3A1337&amp;tr=udp%3A%2F%2Fopen.demonii.com%3A1337&amp;tr=udp%3A%2F%2Ftracker.coppersurfer.tk%3A6969&amp;tr=udp%3A%2F%2Fexodus.desync.com%3A6969","seeders":0,"leechers":1,"uploader":"xxTheOnexx","files":13,"time":1470220738,"description":"http://postimg.org/gallery/k7ntfo54/\r\n\r\nCodec ID                  : mp42\r\nFile size                 : 536 MiB\r\nDuration                  : 1h 49mn\r\nOverall bit rate mode     : Variable\r\nOverall bit rate          : 683 Kbps\r\n\r\n\r\nVideo\r\n-----\r\nID                        : 1\r\nFormat                    : AVC\r\nFormat/Info               : Advanced Video Codec\r\nFormat profile            :   \r\nFormat settings, CABAC    : Yes\r\nFormat settings, ReFrames : 3 frames\r\nCodec ID                  : avc1\r\nCodec ID/Info             : Advanced Video Coding\r\nDuration                  : 1h 49mn\r\nSource duration           : 1h 49mn\r\nBit rate                  : 550 Kbps\r\nWidth                     : 720 pixels\r\nHeight                    : 306 pixels\r\nDisplay aspect ratio      : 2.35:1\r\nFrame rate mode           : Variable\r\nFrame rate                : 24.000 fps\r\nMinimum frame rate        : 24.000 fps\r\nMaximum frame rate        : 24.024 fps\r\nStandard                  : NTSC\r\nColor space               : YUV\r\nChroma subsampling        : 4:2:0\r\nBit depth                 : 8 bits\r\nScan type                 : Progressive\r\nBits/(Pixel*Frame)        : 0.104\r\nStream size               : 431 MiB (81%)\r\nSource stream size        : 431 MiB (81%)\r\nLanguage                  : English\r\nEncoded date              : UTC 2016-08-03 08:31:36\r\nTagged date               : UTC 2016-08-03 08:31:36\r\nColor primaries           : BT.601 NTSC\r\nTransfer characteristics  : BT.601\r\nMatrix coefficients       : BT.601\r\nmdhd_Duration             : 6574375\r\n\r\nAudio\r\n-----\r\nID                        : 2\r\nFormat                    : AAC\r\nFormat/Info               : Advanced Audio Codec\r\nFormat profile            : LC\r\nCodec ID                  : 40\r\nDuration                  : 1h 49mn\r\nSource duration           : 1h 49mn\r\nBit rate mode             : Variable\r\nBit rate                  : 125 Kbps\r\nMaximum bit rate          : 210 Kbps\r\nChannel(s)                : 2 channels\r\nChannel positions         : Front: L R\r\nSampling rate             : 48.0 KHz\r\nCompression mode          : Lossy\r\nStream size               : 98.3 MiB (18%)\r\nSource stream size        : 98.3 MiB (18%)\r\nLanguage                  : English","torrent":{"xt":"urn:btih:d35ed0fc18da3c1fb189e3cfb09c11031c790e6a","amp;dn":"The.Legend.Of.Tarzan.HDRip.KOR.Subs.550mb","amp;tr":["udp%3A%2F%2Ftracker.leechers-paradise.org%3A6969","udp%3A%2F%2Fzer0day.ch%3A1337","udp%3A%2F%2Fopen.demonii.com%3A1337","udp%3A%2F%2Ftracker.coppersurfer.tk%3A6969","udp%3A%2F%2Fexodus.desync.com%3A6969"],"infoHash":"d35ed0fc18da3c1fb189e3cfb09c11031c790e6a","infoHashBuffer":{"type":"Buffer","data":[211,94,208,252,24,218,60,31,177,137,227,207,176,156,17,3,28,121,14,106]},"announce":[],"urlList":[]}}